<svg width="44" height="44" viewBox="0 0 44 44" fill="none" xmlns="http://www.w3.org/2000/svg">
<path d="M13.5106 16.1915C6.14483 17.1727 1 19.404 1 22C1 24.5961 6.14483 26.8274 13.5106 27.8085C13.3164 25.9563 13.2123 24.0095 13.2123 22C13.2123 19.9905 13.3164 18.0438 13.5106 16.1915Z" stroke="#676767" stroke-width="1.3"/>
<path d="M20.0435 14.0179H23.9567L25.1053 15.7641C26.9925 15.8409 28.799 15.9864 30.4895 16.1915C29.4823 7.4414 26.0635 1 22.0001 1C17.9367 1 14.5179 7.4414 13.5107 16.1915C15.2012 15.9864 17.0077 15.8409 18.8949 15.7641L20.0435 14.0179Z" stroke="#676767" stroke-width="1.3"/>
<path d="M13.5107 27.8085C14.5179 36.5586 17.9367 43 22.0001 43C26.0635 43 29.4823 36.5586 30.4895 27.8085C27.8911 28.1237 25.02 28.2991 22.0001 28.2991C18.9803 28.2991 16.1091 28.1237 13.5107 27.8085Z" stroke="#676767" stroke-width="1.3"/>
<path d="M30.4893 16.1915C30.6834 18.0438 30.7876 19.9905 30.7876 22C30.7876 24.0095 30.6834 25.9563 30.4893 27.8085C37.8551 26.8274 42.9999 24.5961 42.9999 22C42.9999 19.404 37.8551 17.1727 30.4893 16.1915Z" stroke="#676767" stroke-width="1.3"/>
<path d="M23.4627 25.5301C25.4125 24.7225 26.3383 22.4872 25.5307 20.5375C24.7231 18.5877 22.4879 17.6619 20.5381 18.4695C18.5884 19.2771 17.6625 21.5123 18.4701 23.4621C19.2777 25.4118 21.513 26.3377 23.4627 25.5301Z" fill="#59D07F"/>
</svg>
