<svg width="26" height="21" viewBox="0 0 26 21" fill="none" xmlns="http://www.w3.org/2000/svg">
<g clip-path="url(#clip0_1803_4685)">
<path d="M6.62683 10.4998C6.62683 6.92262 9.48 4.02277 12.9994 4.02277C7.98948 4.02277 3.57185 6.59062 0.943359 10.4998C3.57185 14.4091 7.98948 16.977 12.9994 16.977C9.48 16.977 6.62683 14.0771 6.62683 10.4998Z" stroke="#747474" stroke-width="1.3" stroke-miterlimit="10"/>
<path d="M13 4.02277C16.5192 4.02277 19.3721 6.92268 19.3721 10.4998C19.3721 14.077 16.5192 16.977 13 16.977C18.0099 16.977 22.4273 14.409 25.0558 10.4998C22.4273 6.59067 18.0099 4.02277 13 4.02277Z" stroke="#747474" stroke-width="1.3" stroke-miterlimit="10"/>
<path d="M22.75 0.807678L2.4375 20.1923" stroke="#747474" stroke-width="1.3" stroke-miterlimit="10"/>
</g>
<defs>
<clipPath id="clip0_1803_4685">
<rect width="26" height="21" fill="white"/>
</clipPath>
</defs>
</svg>
