<svg width="96" height="70" viewBox="0 0 96 70" fill="none" xmlns="http://www.w3.org/2000/svg">
<g id="Group 427319475">
<path id="Rectangle 3107" d="M94.8623 68.3232L1.1378 68.3232L18.2986 53.1425L77.7015 53.1425L94.8623 68.3232Z" stroke="#59D07F" stroke-width="2" stroke-linejoin="round"/>
<path id="Rectangle 3108" d="M1.1377 1L94.8622 1L77.7014 16.1807L18.2985 16.1807L1.1377 1Z" stroke="#59D07F" stroke-width="2" stroke-linejoin="round"/>
<path id="Vector 23" d="M77.7017 16.1807V53.1424M18.2988 16.1807V53.1424" stroke="#59D07F" stroke-width="2" stroke-linecap="round"/>
<path id="Union" fill-rule="evenodd" clip-rule="evenodd" d="M44.9283 10.6574L44.9281 10.6576L46.3282 12.0578L53.346 5.04003L51.9458 3.63989L46.3284 9.25729L44.1208 7.04969L42.7207 8.44983L44.9283 10.6574Z" fill="white"/>
<path id="Union_2" fill-rule="evenodd" clip-rule="evenodd" d="M44.9283 37.0588L44.9281 37.059L46.3282 38.4591L53.346 31.4414L51.9458 30.0413L46.3284 35.6587L44.1208 33.4511L42.7207 34.8512L44.9283 37.0588Z" fill="white"/>
<path id="Union_3" fill-rule="evenodd" clip-rule="evenodd" d="M44.9283 63.4599L44.9281 63.4601L46.3282 64.8603L53.346 57.8425L51.9458 56.4424L46.3284 62.0598L44.1208 59.8522L42.7207 61.2523L44.9283 63.4599Z" fill="white"/>
</g>
</svg>
