<svg width="21" height="21" viewBox="0 0 21 21" fill="none" xmlns="http://www.w3.org/2000/svg">
<path d="M7.61782 14.3012C7.87166 14.0473 7.87166 13.6358 7.61782 13.3819C7.36398 13.1281 6.95242 13.1281 6.69858 13.3819L7.61782 14.3012ZM0.349655 20.0001C0.349655 20.3591 0.64067 20.6501 0.999655 20.6501L6.84965 20.6501C7.20864 20.6501 7.49966 20.3591 7.49965 20.0001C7.49966 19.6411 7.20864 19.3501 6.84966 19.3501L1.64966 19.3501L1.64966 14.1501C1.64966 13.7911 1.35864 13.5001 0.999656 13.5001C0.640671 13.5001 0.349656 13.7911 0.349656 14.1501L0.349655 20.0001ZM6.69858 13.3819L0.540036 19.5405L1.45927 20.4597L7.61782 14.3012L6.69858 13.3819Z" fill="#747474"/>
<path d="M6.69858 7.61819C6.95242 7.87203 7.36398 7.87203 7.61782 7.61819C7.87166 7.36435 7.87166 6.95279 7.61782 6.69895L6.69858 7.61819ZM0.999655 0.350022C0.64067 0.350023 0.349655 0.641038 0.349655 1.00002L0.349656 6.85002C0.349656 7.20901 0.640671 7.50002 0.999656 7.50002C1.35864 7.50002 1.64966 7.20901 1.64966 6.85002L1.64966 1.65002L6.84966 1.65002C7.20864 1.65002 7.49966 1.35901 7.49965 1.00002C7.49966 0.641037 7.20864 0.350022 6.84965 0.350022L0.999655 0.350022ZM7.61782 6.69895L1.45927 0.540403L0.540036 1.45964L6.69858 7.61819L7.61782 6.69895Z" fill="#747474"/>
<path d="M13.3832 6.69895C13.1293 6.95279 13.1293 7.36435 13.3832 7.61819C13.637 7.87203 14.0486 7.87203 14.3024 7.61819L13.3832 6.69895ZM20.6513 1.00002C20.6513 0.641037 20.3603 0.350022 20.0013 0.350022L14.1513 0.350022C13.7923 0.350022 13.5013 0.641037 13.5013 1.00002C13.5013 1.35901 13.7923 1.65002 14.1513 1.65002H19.3513V6.85002C19.3513 7.20901 19.6423 7.50002 20.0013 7.50002C20.3603 7.50002 20.6513 7.20901 20.6513 6.85002L20.6513 1.00002ZM14.3024 7.61819L20.4609 1.45964L19.5417 0.540403L13.3832 6.69895L14.3024 7.61819Z" fill="#747474"/>
<path d="M14.3024 13.3819C14.0486 13.1281 13.637 13.1281 13.3832 13.3819C13.1293 13.6358 13.1293 14.0473 13.3832 14.3012L14.3024 13.3819ZM20.0013 20.6501C20.3603 20.6501 20.6513 20.3591 20.6513 20.0001L20.6513 14.1501C20.6513 13.7911 20.3603 13.5001 20.0013 13.5001C19.6423 13.5001 19.3513 13.7911 19.3513 14.1501L19.3513 19.3501L14.1513 19.3501C13.7923 19.3501 13.5013 19.6411 13.5013 20.0001C13.5013 20.3591 13.7923 20.6501 14.1513 20.6501L20.0013 20.6501ZM13.3832 14.3012L19.5417 20.4597L20.4609 19.5405L14.3024 13.3819L13.3832 14.3012Z" fill="#747474"/>
</svg>
