<svg width="23" height="23" viewBox="0 0 23 23" fill="none" xmlns="http://www.w3.org/2000/svg">
<circle cx="11.3829" cy="11.3829" r="10.7329" stroke="#59D07F" stroke-width="1.3"/>
<path d="M11.3827 16.1247C8.31371 16.1247 5.56709 15.5341 3.61201 14.608C1.60735 13.6584 0.649772 12.4743 0.649772 11.3828C0.649772 10.2912 1.60735 9.10711 3.61201 8.15753C5.56709 7.23144 8.31371 6.64084 11.3827 6.64084C14.4517 6.64084 17.1983 7.23144 19.1534 8.15753C21.1581 9.10711 22.1156 10.2912 22.1156 11.3828C22.1156 12.4743 21.1581 13.6584 19.1534 14.608C17.1983 15.5341 14.4517 16.1247 11.3827 16.1247Z" stroke="#59D07F" stroke-width="1.3"/>
<path d="M6.64059 11.5046C6.64059 8.43566 7.23118 5.68904 8.15727 3.73396C9.10685 1.7293 10.291 0.77172 11.3825 0.77172C12.474 0.771721 13.6582 1.7293 14.6077 3.73396C15.5338 5.68904 16.1244 8.43566 16.1244 11.5046C16.1244 14.5736 15.5338 17.3203 14.6077 19.2753C13.6582 21.28 12.474 22.2376 11.3825 22.2376C10.291 22.2376 9.10685 21.28 8.15727 19.2753C7.23118 17.3203 6.64059 14.5736 6.64059 11.5046Z" stroke="#59D07F" stroke-width="1.3"/>
</svg>
