<svg width="23" height="24" viewBox="0 0 23 24" fill="none" xmlns="http://www.w3.org/2000/svg">
<circle cx="11.3829" cy="12.2705" r="10.7329" stroke="#747474" stroke-width="1.3"/>
<path d="M11.3827 17.0122C8.31371 17.0122 5.56709 16.4217 3.61201 15.4956C1.60735 14.546 0.649772 13.3619 0.649772 12.2703C0.649772 11.1788 1.60735 9.99468 3.61201 9.0451C5.56709 8.11901 8.31371 7.52842 11.3827 7.52842C14.4517 7.52842 17.1983 8.11901 19.1534 9.0451C21.1581 9.99468 22.1156 11.1788 22.1156 12.2703C22.1156 13.3619 21.1581 14.546 19.1534 15.4956C17.1983 16.4217 14.4517 17.0122 11.3827 17.0122Z" stroke="#747474" stroke-width="1.3"/>
<path d="M6.64059 12.3922C6.64059 9.32323 7.23118 6.57662 8.15727 4.62153C9.10685 2.61687 10.291 1.65929 11.3825 1.65929C12.474 1.65929 13.6582 2.61687 14.6077 4.62153C15.5338 6.57662 16.1244 9.32323 16.1244 12.3922C16.1244 15.4612 15.5338 18.2078 14.6077 20.1629C13.6582 22.1676 12.474 23.1251 11.3825 23.1251C10.291 23.1251 9.10685 22.1676 8.15727 20.1629C7.23118 18.2078 6.64059 15.4612 6.64059 12.3922Z" stroke="#747474" stroke-width="1.3"/>
</svg>
