<svg width="15" height="15" viewBox="0 0 15 15" fill="none" xmlns="http://www.w3.org/2000/svg">
<g clip-path="url(#clip0_2040_222)">
<path d="M5.62308 13.9089C4.96465 14.3336 4.18003 14.5188 3.40115 14.4332C2.62229 14.3474 1.89666 13.9962 1.34631 13.4384L0.865174 12.968C0.654239 12.7522 0.536133 12.4625 0.536133 12.1608C0.536133 11.8591 0.654239 11.5692 0.865174 11.3536L2.90733 9.33274C3.12129 9.12249 3.40925 9.00467 3.70923 9.00467C4.0092 9.00467 4.29718 9.12249 4.51112 9.33274C4.72688 9.54369 5.01663 9.66179 5.31837 9.66179C5.6201 9.66179 5.90985 9.54369 6.1256 9.33274L9.33318 6.12516C9.44019 6.01971 9.52516 5.89405 9.58316 5.75547C9.64115 5.61689 9.67103 5.46815 9.67103 5.31793C9.67103 5.16769 9.64115 5.01897 9.58316 4.88038C9.52516 4.7418 9.44019 4.61613 9.33318 4.51068C9.12293 4.29674 9.00511 4.00876 9.00511 3.70879C9.00511 3.40882 9.12293 3.12085 9.33318 2.90689L11.3646 0.875428C11.5804 0.664491 11.8701 0.546387 12.1718 0.546387C12.4737 0.546387 12.7634 0.664491 12.9792 0.875428L13.4496 1.35657C14.0073 1.90692 14.3585 2.63254 14.4442 3.41141C14.53 4.19028 14.3448 4.9749 13.92 5.63334C11.7067 8.89516 8.89061 11.704 5.62308 13.9089Z" stroke="white" stroke-linecap="round" stroke-linejoin="round"/>
</g>
<defs>
<clipPath id="clip0_2040_222">
<rect width="15" height="15" fill="white"/>
</clipPath>
</defs>
</svg>
