<svg width="18" height="13" viewBox="0 0 18 13" fill="none" xmlns="http://www.w3.org/2000/svg">
<g id="Group 427319432">
<path id="Vector" d="M16.1795 2.57133H12.7099L11.9538 1.19646C11.9215 1.13794 11.8689 1.08824 11.8024 1.05337C11.7359 1.0185 11.6582 0.999963 11.5789 1H6.42194C6.34256 0.999992 6.2649 1.01858 6.19832 1.05351C6.13178 1.08844 6.07919 1.13821 6.04698 1.19679L5.29047 2.57133H1.82051C1.6029 2.57133 1.3942 2.64114 1.24032 2.7654C1.08645 2.88966 1 3.05819 1 3.23393V11.3374C1 11.5131 1.08645 11.6817 1.24032 11.8059C1.3942 11.9302 1.6029 12 1.82051 12H16.1795C16.3971 12 16.6058 11.9302 16.7597 11.8059C16.9135 11.6817 17 11.5131 17 11.3374V3.23393C17 3.05819 16.9135 2.88966 16.7597 2.7654C16.6058 2.64114 16.3971 2.57133 16.1795 2.57133Z" stroke="#676767" stroke-width="1.3"/>
<path id="Vector_2" d="M11.35 7C11.35 8.29787 10.2979 9.35 9 9.35C7.70213 9.35 6.65 8.29787 6.65 7C6.65 5.70213 7.70213 4.65 9 4.65C10.2979 4.65 11.35 5.70213 11.35 7Z" stroke="#676767" stroke-width="1.3"/>
</g>
</svg>
