<svg width="57" height="57" viewBox="0 0 57 57" fill="none" xmlns="http://www.w3.org/2000/svg">
<path d="M0 16C0 10.3995 0 7.59921 1.08993 5.46009C2.04867 3.57847 3.57847 2.04867 5.46009 1.08993C7.59921 0 10.3995 0 16 0H41C46.6005 0 49.4008 0 51.5399 1.08993C53.4215 2.04867 54.9513 3.57847 55.9101 5.46009C57 7.59921 57 10.3995 57 16V41C57 46.6005 57 49.4008 55.9101 51.5399C54.9513 53.4215 53.4215 54.9513 51.5399 55.9101C49.4008 57 46.6005 57 41 57H16C10.3995 57 7.59921 57 5.46009 55.9101C3.57847 54.9513 2.04867 53.4215 1.08993 51.5399C0 49.4008 0 46.6005 0 41V16Z" fill="url(#paint0_linear_1897_8328)"/>
<path d="M19 22C10.7573 23.098 5 25.5949 5 28.5C5 31.4051 10.7573 33.902 19 35C18.7827 32.9273 18.6661 30.7487 18.6661 28.5C18.6661 26.2513 18.7827 24.0727 19 22Z" fill="white"/>
<path d="M26.3105 19.5676H30.6895L31.9749 21.5217C34.0868 21.6077 36.1083 21.7705 38 22C36.873 12.2082 33.0471 5 28.5 5C23.9529 5 20.127 12.2082 19 22C20.8917 21.7705 22.9132 21.6077 25.0251 21.5217L26.3105 19.5676Z" fill="white"/>
<path d="M19 35C20.127 44.7918 23.9529 52 28.5 52C33.0471 52 36.873 44.7918 38 35C35.0924 35.3528 31.8794 35.549 28.5 35.549C25.1206 35.549 21.9076 35.3528 19 35Z" fill="white"/>
<path d="M38 22C38.2173 24.0727 38.3339 26.2513 38.3339 28.5C38.3339 30.7487 38.2173 32.9273 38 35C46.2427 33.902 52 31.4051 52 28.5C52 25.5949 46.2427 23.098 38 22Z" fill="white"/>
<path d="M30.1364 32.4503C32.3183 31.5466 33.3544 29.0452 32.4506 26.8634C31.5469 24.6815 29.0455 23.6454 26.8637 24.5492C24.6818 25.4529 23.6457 27.9543 24.5495 30.1361C25.4532 32.318 27.9546 33.3541 30.1364 32.4503Z" fill="white"/>
<defs>
<linearGradient id="paint0_linear_1897_8328" x1="28.5" y1="0" x2="28.5" y2="57" gradientUnits="userSpaceOnUse">
<stop stop-color="#59D07F"/>
<stop offset="1" stop-color="#648B9C"/>
</linearGradient>
</defs>
</svg>
