<svg width="219" height="48" viewBox="0 0 219 48" fill="none" xmlns="http://www.w3.org/2000/svg">
<g clip-path="url(#clip0_219_464)">
<path d="M0 0.418945H11.9069C23.7608 0.418945 31.3475 8.06966 31.3475 19.0741C31.3475 30.0263 24.0771 37.6243 12.0648 37.6243H0V0.418945ZM11.696 31.9651C19.599 31.9651 24.7622 26.4629 24.7622 19.0741C24.7622 11.5282 19.546 6.07877 12.0124 6.07877H6.37494V31.9651H11.696Z" fill="#00140A"/>
<path d="M63.3812 32.1742L67.3857 27.3012C70.0725 30.5501 73.7607 32.1742 76.974 32.1742C81.0834 32.1742 83.1911 30.393 83.1911 27.668C83.1911 24.4192 80.7146 23.371 75.9732 21.6942C70.2834 19.7027 64.6459 17.1874 64.6459 10.3751C64.6459 4.5589 70.0201 0 76.4998 0C80.9255 0 85.0879 1.57197 88.8809 4.5589L85.0879 9.5373C82.0318 7.02143 79.0287 5.71196 76.4998 5.71196C73.6022 5.71196 71.2842 7.28393 71.2318 10.0611C71.1788 12.7861 73.7076 13.7288 78.2388 15.4584C84.6661 17.9737 89.8293 19.7027 89.8293 26.8817C89.8293 34.5852 82.9278 38.0437 76.9216 38.0437C72.1272 38.0437 67.2803 36.2093 63.3812 32.1742Z" fill="#00140A"/>
<path d="M94.6242 12.0521H100.525V15.0917H100.63C102.527 12.8911 105.372 11.6853 108.744 11.6853C115.857 11.6853 121.177 17.2402 121.177 24.9431C121.177 32.8557 115.857 38.0438 108.691 38.0438C105.213 38.0438 102.527 36.7859 100.63 34.4804L100.525 34.5325V48H94.6242V12.0521ZM115.171 24.9958C115.171 20.0695 111.852 16.9783 107.743 16.9783C103.318 16.9783 100.262 20.4363 100.262 24.9958C100.262 29.6068 103.58 32.6987 107.796 32.6987C112.116 32.6987 115.171 29.502 115.171 24.9958Z" fill="#00140A"/>
<path d="M124.234 24.9431C124.234 17.2402 129.554 11.6853 136.615 11.6853C139.88 11.6853 142.726 12.8911 144.569 15.1966L144.676 15.1439V12.0521H150.576V37.6244H144.938V34.2707L144.833 34.2185C142.99 36.6811 140.249 38.0439 136.668 38.0439C129.554 38.0439 124.234 32.8557 124.234 24.9431ZM144.938 24.9958C144.938 20.4363 141.83 16.9784 137.615 16.9784C133.506 16.9784 130.24 20.0696 130.24 24.9958C130.24 29.502 133.243 32.6987 137.615 32.6987C141.619 32.6987 144.938 29.6069 144.938 24.9958Z" fill="#00140A"/>
<path d="M154.95 24.891C154.95 17.0305 160.481 11.6853 168.278 11.6853C172.283 11.6853 176.498 13.31 179.079 16.454L175.075 19.9125C173.6 18.1836 171.387 16.9784 168.595 16.9784C164.011 16.9784 160.956 20.1744 160.956 24.8382C160.956 29.5547 164.064 32.6987 168.595 32.6987C171.44 32.6987 173.758 31.4408 175.075 29.7118L179.132 33.2752C176.972 36.0524 173.653 38.0439 168.069 38.0439C160.481 38.0439 154.95 32.6987 154.95 24.891Z" fill="#00140A"/>
<path d="M206.319 26.777H187.563C188.301 30.4974 191.093 32.6987 195.097 32.6987C198.152 32.6987 200.26 31.3365 201.577 29.7118L205.687 33.2225C203.527 35.9997 200.313 38.0439 194.781 38.0439C186.984 38.0439 181.452 32.8557 181.452 24.8382C181.452 16.9784 186.826 11.6853 194.36 11.6853C201.577 11.6853 206.477 17.0826 206.477 24.5242C206.477 25.4669 206.372 26.3581 206.319 26.777ZM187.668 22.1659H200.524C199.786 19.0741 197.679 16.9784 194.307 16.9784C191.04 16.9784 188.512 18.8122 187.668 22.1659Z" fill="#00140A"/>
<path d="M47.6905 38.0898C55.013 38.0898 60.949 32.1857 60.949 24.9026C60.949 17.6195 55.013 11.7153 47.6905 11.7153C40.368 11.7153 34.4319 17.6195 34.4319 24.9026C34.4319 32.1857 40.368 38.0898 47.6905 38.0898Z" fill="#59D07F"/>
<path d="M210.225 7.41114H208.669V6.80029H212.436V7.41114H210.878V11.607H210.225V7.41114Z" fill="#00140A"/>
<path d="M213.084 6.80029H214.059L215.595 10.44H215.623L217.145 6.80029H218.121V11.607H217.465V7.65704H217.451L215.821 11.607H215.383L213.753 7.65704H213.739V11.607H213.084V6.80029Z" fill="#00140A"/>
</g>
<defs>
<clipPath id="clip0_219_464">
<rect width="219" height="48" fill="white"/>
</clipPath>
</defs>
</svg>
