<svg width="107" height="22" viewBox="0 0 107 22" fill="none" xmlns="http://www.w3.org/2000/svg">
<path d="M0 0.192017H5.61459C11.2042 0.192017 14.7816 3.69859 14.7816 8.74228C14.7816 13.7621 11.3533 17.2445 5.68903 17.2445H0V0.192017ZM5.51514 14.6507C9.24172 14.6507 11.6764 12.1288 11.6764 8.74228C11.6764 5.28377 9.21672 2.7861 5.66431 2.7861H3.00604V14.6507H5.51514Z" fill="#00140A"/>
<path d="M29.8867 14.7465L31.775 12.5131C33.0419 14.0021 34.781 14.7465 36.2963 14.7465C38.234 14.7465 39.2279 13.9302 39.2279 12.6812C39.2279 11.1921 38.0601 10.7117 35.8244 9.94317C33.1414 9.0304 30.4831 7.87757 30.4831 4.75527C30.4831 2.0895 33.0172 0 36.0727 0C38.1596 0 40.1223 0.720487 41.9109 2.0895L40.1223 4.37127C38.6812 3.21816 37.2652 2.61798 36.0727 2.61798C34.7063 2.61798 33.6133 3.33847 33.5886 4.61134C33.5636 5.86031 34.756 6.29239 36.8927 7.08511C39.9234 8.23795 42.3581 9.0304 42.3581 12.3208C42.3581 15.8515 39.1037 17.4367 36.2716 17.4367C34.0108 17.4367 31.7253 16.5959 29.8867 14.7465Z" fill="#00140A"/>
<path d="M44.6191 5.52382H47.4016V6.917H47.4513C48.3457 5.90837 49.6874 5.35571 51.2773 5.35571C54.6311 5.35571 57.1399 7.90173 57.1399 11.4322C57.1399 15.0588 54.6311 17.4367 51.2523 17.4367C49.6123 17.4367 48.3457 16.8602 47.4513 15.8035L47.4016 15.8274V22H44.6191V5.52382ZM54.3078 11.4564C54.3078 9.1985 52.7428 7.78169 50.8051 7.78169C48.7185 7.78169 47.2774 9.3666 47.2774 11.4564C47.2774 13.5698 48.8424 14.9868 50.8301 14.9868C52.8673 14.9868 54.3078 13.5217 54.3078 11.4564Z" fill="#00140A"/>
<path d="M58.5811 11.4322C58.5811 7.90173 61.0899 5.35571 64.4192 5.35571C65.9592 5.35571 67.3008 5.90837 68.1703 6.96507L68.2203 6.94089V5.52382H71.0024V17.2444H68.3441V15.7073L68.2947 15.6834C67.4253 16.8121 66.1331 17.4367 64.4443 17.4367C61.0899 17.4367 58.5811 15.0588 58.5811 11.4322ZM68.3441 11.4564C68.3441 9.3666 66.8786 7.78169 64.8909 7.78169C62.9532 7.78169 61.4132 9.1985 61.4132 11.4564C61.4132 13.5217 62.8293 14.9868 64.8909 14.9868C66.7792 14.9868 68.3441 13.5698 68.3441 11.4564Z" fill="#00140A"/>
<path d="M73.0654 11.4083C73.0654 7.80559 75.6737 5.35571 79.3503 5.35571C81.2386 5.35571 83.2263 6.10037 84.4435 7.54135L82.5552 9.12653C81.8597 8.33408 80.8164 7.78169 79.4997 7.78169C77.3381 7.78169 75.8976 9.24656 75.8976 11.3841C75.8976 13.5459 77.3631 14.9868 79.4997 14.9868C80.8414 14.9868 81.9341 14.4103 82.5552 13.6178L84.4685 15.2511C83.4496 16.524 81.8847 17.4367 79.2514 17.4367C75.6737 17.4367 73.0654 14.9868 73.0654 11.4083Z" fill="#00140A"/>
<path d="M97.2883 12.2727H88.4441C88.7919 13.9779 90.1085 14.9868 91.9968 14.9868C93.4373 14.9868 94.4312 14.3625 95.0523 13.6178L96.99 15.2269C95.9717 16.4998 94.4562 17.4367 91.8473 17.4367C88.1708 17.4367 85.5625 15.0588 85.5625 11.3841C85.5625 7.78169 88.0963 5.35571 91.649 5.35571C95.0523 5.35571 97.3628 7.82949 97.3628 11.2402C97.3628 11.6723 97.3133 12.0807 97.2883 12.2727ZM88.4935 10.1593H94.5556C94.2078 8.74225 93.214 7.78169 91.624 7.78169C90.0835 7.78169 88.8913 8.62222 88.4935 10.1593Z" fill="#00140A"/>
<path d="M22.4883 17.4578C25.9411 17.4578 28.7402 14.7517 28.7402 11.4137C28.7402 8.07556 25.9411 5.36951 22.4883 5.36951C19.0354 5.36951 16.2363 8.07556 16.2363 11.4137C16.2363 14.7517 19.0354 17.4578 22.4883 17.4578Z" fill="#4DB671"/>
</svg>
