<svg width="113" height="24" viewBox="0 0 113 24" fill="none" xmlns="http://www.w3.org/2000/svg">
<g id="Layer_1" clip-path="url(#clip0_2442_1801)">
<g id="Group">
<path id="Vector" d="M0.0683594 0.210449H6.02349C11.9521 0.210449 15.7465 4.05758 15.7465 9.59111C15.7465 15.0984 12.1103 18.919 6.10244 18.919H0.0683594V0.210449ZM5.91801 16.0733C9.87062 16.0733 12.453 13.3065 12.453 9.59111C12.453 5.79671 9.8441 3.05647 6.07622 3.05647H3.25672V16.0733H5.91801Z" fill="white"/>
<path id="Vector_2" d="M31.7676 16.1787L33.7704 13.7283C35.1142 15.362 36.9588 16.1787 38.5659 16.1787C40.6212 16.1787 41.6753 15.283 41.6753 13.9128C41.6753 12.2791 40.4367 11.752 38.0653 10.9088C35.2196 9.90743 32.4001 8.64263 32.4001 5.2171C32.4001 2.29243 35.0879 0 38.3287 0C40.5422 0 42.624 0.790461 44.521 2.29243L42.624 4.7958C41.0955 3.5307 39.5935 2.87224 38.3287 2.87224C36.8795 2.87224 35.7202 3.6627 35.694 5.05919C35.6674 6.42946 36.9322 6.9035 39.1985 7.77322C42.413 9.03801 44.9954 9.90743 44.9954 13.5174C44.9954 17.391 41.5436 19.1302 38.5397 19.1302C36.1418 19.1302 33.7177 18.2077 31.7676 16.1787Z" fill="white"/>
<path id="Vector_3" d="M47.3936 6.06041H50.3448V7.58889H50.3975C51.3462 6.48231 52.7692 5.87598 54.4556 5.87598C58.0128 5.87598 60.6738 8.66926 60.6738 12.5426C60.6738 16.5214 58.0128 19.1303 54.4291 19.1303C52.6896 19.1303 51.3462 18.4977 50.3975 17.3384L50.3448 17.3646V24.1367H47.3936V6.06041ZM57.6698 12.5691C57.6698 10.092 56.01 8.53757 53.9547 8.53757C51.7415 8.53757 50.2131 10.2764 50.2131 12.5691C50.2131 14.8878 51.8729 16.4425 53.9812 16.4425C56.142 16.4425 57.6698 14.835 57.6698 12.5691Z" fill="white"/>
<path id="Vector_4" d="M62.2021 12.5426C62.2021 8.66926 64.8631 5.87598 68.3944 5.87598C70.0278 5.87598 71.4508 6.48231 72.373 7.64163L72.426 7.61511V6.06041H75.3769V18.9193H72.5574V17.2329L72.505 17.2067C71.5828 18.445 70.2122 19.1303 68.421 19.1303C64.8631 19.1303 62.2021 16.5214 62.2021 12.5426ZM72.5574 12.5691C72.5574 10.2764 71.003 8.53757 68.8947 8.53757C66.8394 8.53757 65.2061 10.092 65.2061 12.5691C65.2061 14.835 66.708 16.4425 68.8947 16.4425C70.8975 16.4425 72.5574 14.8878 72.5574 12.5691Z" fill="white"/>
<path id="Vector_5" d="M77.5654 12.5164C77.5654 8.56378 80.3319 5.87598 84.2315 5.87598C86.2343 5.87598 88.3426 6.69296 89.6336 8.27388L87.6308 10.013C86.893 9.1436 85.7865 8.53757 84.39 8.53757C82.0972 8.53757 80.5694 10.1447 80.5694 12.4899C80.5694 14.8616 82.1238 16.4425 84.39 16.4425C85.813 16.4425 86.972 15.8099 87.6308 14.9405L89.6601 16.7324C88.5794 18.1289 86.9196 19.1303 84.1266 19.1303C80.3319 19.1303 77.5654 16.4425 77.5654 12.5164Z" fill="white"/>
<path id="Vector_6" d="M103.256 13.4643H93.8757C94.2446 15.3351 95.6411 16.442 97.6439 16.442C99.1718 16.442 100.226 15.757 100.885 14.94L102.94 16.7054C101.86 18.1019 100.252 19.1298 97.4854 19.1298C93.5858 19.1298 90.8193 16.5209 90.8193 12.4894C90.8193 8.53708 93.5068 5.87549 97.275 5.87549C100.885 5.87549 103.335 8.58951 103.335 12.3315C103.335 12.8055 103.283 13.2536 103.256 13.4643ZM93.9281 11.1456H100.358C99.989 9.59093 98.9349 8.53708 97.2485 8.53708C95.6145 8.53708 94.35 9.45923 93.9281 11.1456Z" fill="white"/>
<path id="Vector_7" d="M23.9212 19.1534C27.5835 19.1534 30.5523 16.1846 30.5523 12.5223C30.5523 8.85998 27.5835 5.89111 23.9212 5.89111C20.2589 5.89111 17.29 8.85998 17.29 12.5223C17.29 16.1846 20.2589 19.1534 23.9212 19.1534Z" fill="#59D07F"/>
</g>
<g id="Group_2">
<path id="Vector_8" d="M105.667 2.48755H104.432V2H107.422V2.48755H106.186V5.83654H105.667V2.48755Z" fill="white"/>
<path id="Vector_9" d="M107.937 2H108.711L109.93 4.90506H109.952L111.161 2H111.935V5.83654H111.415V2.68382H111.404L110.109 5.83654H109.762L108.468 2.68382H108.457V5.83654H107.937V2Z" fill="white"/>
</g>
</g>
<defs>
<clipPath id="clip0_2442_1801">
<rect width="113" height="24" fill="white"/>
</clipPath>
</defs>
</svg>
